@startuml
hide circle
hide method
skinparam classAttributeIconSize 0
skinparam RectangleBackgroundColor white

class customer {
{static} id_customer: integer

}

class order {
{static} id_order: integer
#id_customer:integer
}

class product {
{static} id_product: integer
#id_supplier:integer
}

class supplier {
{static} id_supplier: integer
}

class order_line {
}

class tag {
{static} id_tag: integer
}

class product_tag {
}

class price {
{static} id: integer
#id_product: integer
}

customer <-- order
supplier <-- product
product <-- price

@enduml